# xmcd
#
# Track frame offsets:
# 183
# 15778
# 35118
# 47868
# 64903
# 80058
# 94860
# 109073
# 128733
# 144645
# 163380
# 187223
# 206963
# 223825
# 236293
# 251873
# 265528
# 280830
# 293523
# 310595
#
# Disc length: 4396 seconds
#
#
# Revision: 0
# Processed by: cddbd v1.5.2PL0 Copyright (c) Steve Scherf et al.
# Submitted via: FreeRIP 2.942 
#
DISCID=31112a14
DTITLE=Roger Whittaker - The Genius Of Love
DYEAR=1988
DGENRE=Other
TTITLE0=Feelings
TTITLE1=Your Song
TTITLE2=She
TTITLE3=Sand In The Clowns
TTITLE4=When I need you
TTITLE5=Too beautiful to cry
TTITLE6=Annie's Song
TTITLE7=Indian Lady
TTITLE8=Bright Eyes
TTITLE9=Here We Stand
TTITLE10=Newsport Belle
TTITLE11=For I Loved You
TTITLE12=The Genius Of Love
TTITLE13=Your Voice
TTITLE14=Miss You Nights
TTITLE15=Home Lovin' Man
TTITLE16=Everybody's Got A Lonely Heart
TTITLE17=Only The Lonely
TTITLE18=Take A Little Give A Little
TTITLE19=Mary
EXTD=
EXTT0=
EXTT1=
EXTT2=
EXTT3=
EXTT4=
EXTT5=
EXTT6=
EXTT7=
EXTT8=
EXTT9=
EXTT10=
EXTT11=
EXTT12=
EXTT13=
EXTT14=
EXTT15=
EXTT16=
EXTT17=
EXTT18=
EXTT19=
PLAYORDER=
